<?xml version="1.0" encoding="iso-8859-1"?>
<!-- Uploaded to: SVG Repo, www.svgrepo.com, Generator: SVG Repo Mixer Tools -->
<svg height="800px" width="800px" version="1.1" id="Layer_1" xmlns="http://www.w3.org/2000/svg" xmlns:xlink="http://www.w3.org/1999/xlink" 
	 viewBox="0 0 393.309 393.309" xml:space="preserve">
<circle style="fill:#29B36F;" cx="196.655" cy="196.655" r="196.655"/>
<path style="fill:#F8B517;" d="M297.503,291.943l-63.354-10.408v-12.154h-74.925v12.154l-63.354,10.408l-34.715,47.127
	c13.705,13.059,29.285,24.113,46.287,32.776l13.188-11.96v18.166c23.402,9.826,49.067,15.192,76.024,15.192
	s52.622-5.43,76.024-15.192v-18.166l13.188,11.96c17.002-8.663,32.582-19.782,46.287-32.776L297.503,291.943z"/>
<path style="fill:#414753;" d="M252.509,122.117H140.8c-28.897,0-52.364,25.988-52.364,57.923s23.402,57.923,52.364,57.923h111.644
	c28.897,0,52.364-25.988,52.364-57.923S281.406,122.117,252.509,122.117z"/>
<path style="fill:#FFE6D2;" d="M227.814,157.479H165.56c-10.02,0-18.166,8.145-18.166,18.166v51.135
	c0,27.022,20.816,50.554,47.838,51.394c27.927,0.84,50.877-21.527,50.877-49.325v-53.139
	C245.98,165.689,237.834,157.479,227.814,157.479z"/>
<path style="fill:#F8B517;" d="M179.653,196.525c-3.62-1.939-6.012-5.495-6.012-9.632l-1.552-6.853l-1.552,6.853
	c0,4.073-2.457,7.628-6.012,9.632c-3.491,1.939-5.818,5.042-5.818,8.598s2.327,6.659,5.818,8.598
	c3.62,1.939,6.012,5.495,6.012,9.632l1.552,6.853l1.552-6.853c0-4.073,2.457-7.628,6.012-9.632c3.491-1.939,5.818-5.042,5.818-8.598
	S183.143,198.4,179.653,196.525z"/>
<circle style="fill:#333842;" cx="172.089" cy="205.059" r="4.719"/>
<path style="fill:#F8B517;" d="M228.784,196.525c-3.62-1.939-6.012-5.495-6.012-9.632l-1.552-6.853l-1.552,6.853
	c0,4.073-2.457,7.628-6.012,9.632c-3.491,1.939-5.818,5.042-5.818,8.598s2.327,6.659,5.818,8.598
	c3.62,1.939,6.012,5.495,6.012,9.632l1.552,6.853l1.552-6.853c0-4.073,2.457-7.628,6.012-9.632c3.491-1.939,5.818-5.042,5.818-8.598
	S232.275,198.4,228.784,196.525z"/>
<circle style="fill:#333842;" cx="221.22" cy="205.059" r="4.719"/>
<ellipse style="fill:#FFFFFC;" cx="196.655" cy="255.483" rx="30.707" ry="22.691"/>
<circle style="fill:#F0582F;" cx="196.655" cy="232.663" r="13.964"/>
<path style="fill:#646B79;" d="M196.655,269.382c-19.717,0-35.685-12.154-35.685-27.152c0-1.939,1.552-3.556,3.556-3.556
	c1.939,0,3.556,1.552,3.556,3.556c0,11.055,12.8,20.105,28.638,20.105c15.774,0,28.638-8.986,28.638-20.105
	c0-1.939,1.552-3.556,3.556-3.556c1.939,0,3.556,1.552,3.556,3.556C232.339,257.228,216.372,269.382,196.655,269.382z"/>
<path style="fill:#F0582F;" d="M245.98,122.117h-98.65l39.499-59.927c3.038,1.228,6.335,1.939,9.762,1.939s6.788-0.711,9.762-1.939
	L245.98,122.117z"/>
<circle style="fill:#FCFCFD;" cx="196.655" cy="38.788" r="25.341"/>
<polygon style="fill:#D54232;" points="184.372,299.895 159.871,375.402 184.372,381.414 198.206,303.127 "/>
<g>
	<circle style="fill:#E95341;" cx="195.491" cy="297.18" r="15.515"/>
	<polygon style="fill:#E95341;" points="201.438,292.719 189.673,297.18 206.675,384.646 233.438,375.402 	"/>
</g>
</svg>